<?xml version="1.0" encoding="UTF-8" standalone="no"?>
<svg
   enable-background="new"
   inkscape:export-ydpi="96"
   inkscape:export-xdpi="96"
   inkscape:export-filename="avatar.png"
   sodipodi:docname="avatar.svg"
   inkscape:version="1.1.1 (3bf5ae0d25, 2021-09-20)"
   version="1.1"
   id="svg5058"
   viewBox="0 0 256 256"
   height="256"
   width="256"
   xmlns:inkscape="http://www.inkscape.org/namespaces/inkscape"
   xmlns:sodipodi="http://sodipodi.sourceforge.net/DTD/sodipodi-0.dtd"
   xmlns="http://www.w3.org/2000/svg"
   xmlns:svg="http://www.w3.org/2000/svg"
   xmlns:rdf="http://www.w3.org/1999/02/22-rdf-syntax-ns#"
   xmlns:cc="http://creativecommons.org/ns#"
   xmlns:dc="http://purl.org/dc/elements/1.1/">
  <defs
     id="defs5060">
    <inkscape:path-effect
       effect="powerstroke"
       id="path-effect862"
       is_visible="true"
       offset_points="0.088166247,2.4071699"
       sort_points="true"
       interpolator_type="CubicBezierJohan"
       interpolator_beta="0.2"
       start_linecap_type="zerowidth"
       linejoin_type="extrp_arc"
       miter_limit="4"
       end_linecap_type="zerowidth" />
    <inkscape:path-effect
       end_linecap_type="zerowidth"
       miter_limit="4"
       linejoin_type="extrp_arc"
       start_linecap_type="zerowidth"
       interpolator_beta="0.2"
       interpolator_type="CubicBezierJohan"
       sort_points="true"
       offset_points="0.13087458,1.9696699"
       is_visible="true"
       id="path-effect858"
       effect="powerstroke" />
    <filter
       id="filter1573"
       style="color-interpolation-filters:sRGB;"
       inkscape:menu-tooltip="Basic noise fill texture; adjust color in Flood"
       inkscape:menu="Overlays"
       inkscape:label="Duotone Turbulent">
      <feColorMatrix
         id="feColorMatrix1547"
         values="1 0 0 0 0 0 1 0 0 0 0 0 1 0 0 0 0 0 1 1 " />
      <feColorMatrix
         id="feColorMatrix1549"
         result="result1"
         values="0"
         type="saturate" />
      <feFlood
         id="feFlood1551"
         result="result2"
         flood-color="rgb(9,111,151)" />
      <feColorMatrix
         id="feColorMatrix1553"
         result="result3"
         values="0"
         type="hueRotate" />
      <feBlend
         id="feBlend1555"
         result="result2"
         mode="screen"
         in2="result1" />
      <feBlend
         id="feBlend1557"
         mode="multiply"
         result="result4"
         in2="result2" />
      <feTurbulence
         id="feTurbulence1559"
         result="result7"
         type="fractalNoise"
         baseFrequency="0.035"
         numOctaves="5" />
      <feColorMatrix
         id="feColorMatrix1561"
         values="1 0 0 0 0 0 1 0 0 0 0 0 1 0 0 0 0 0 3 -1 "
         result="result0" />
      <feFlood
         id="feFlood1563"
         result="result1"
         flood-color="rgb(200,57,93)"
         flood-opacity="1" />
      <feBlend
         id="feBlend1565"
         result="result5"
         in="result1"
         mode="lighten"
         in2="result4" />
      <feComposite
         id="feComposite1567"
         result="result6"
         operator="out"
         in2="result0" />
      <feComposite
         id="feComposite1569"
         result="result8"
         operator="atop"
         in2="result4" />
      <feComposite
         id="feComposite1571"
         operator="in"
         in2="SourceGraphic" />
    </filter>
  </defs>
  <sodipodi:namedview
     borderlayer="true"
     inkscape:document-rotation="0"
     inkscape:snap-global="true"
     inkscape:window-maximized="1"
     inkscape:window-y="32"
     inkscape:window-x="0"
     inkscape:window-height="1011"
     inkscape:window-width="1920"
     inkscape:snap-bbox-midpoints="false"
     inkscape:snap-bbox="true"
     units="px"
     showgrid="false"
     inkscape:current-layer="layer2"
     inkscape:document-units="px"
     inkscape:cy="120.49999"
     inkscape:cx="87.749996"
     inkscape:zoom="2.0000001"
     inkscape:pageshadow="2"
     inkscape:pageopacity="0.0"
     borderopacity="1.0"
     bordercolor="#666666"
     pagecolor="#ffffff"
     id="base"
     inkscape:pagecheckerboard="0"
     inkscape:snap-page="true">
    <inkscape:grid
       originy="28"
       originx="28"
       empopacity="0.25098039"
       empcolor="#ff3f43"
       opacity="0.1254902"
       color="#ff3f48"
       spacingy="2.5"
       spacingx="2.5"
       empspacing="8"
       id="grid5066"
       type="xygrid" />
  </sodipodi:namedview>
  <metadata
     id="metadata5063">
    <rdf:RDF>
      <cc:Work
         rdf:about="">
        <dc:format>image/svg+xml</dc:format>
        <dc:type
           rdf:resource="http://purl.org/dc/dcmitype/StillImage" />
        <dc:title />
      </cc:Work>
    </rdf:RDF>
  </metadata>
  <g
     style="display:none"
     inkscape:label="bg"
     id="layer2"
     inkscape:groupmode="layer">
    <rect
       y="1.7763568e-14"
       x="0"
       height="256"
       width="256"
       id="rect937"
       style="fill:#171717;fill-opacity:1;stroke-width:0.0941424;stroke-linecap:square;stroke-opacity:0.752941" />
  </g>
  <g
     inkscape:label="fg"
     id="layer1"
     inkscape:groupmode="layer">
    <path
       id="path46"
       style="fill:#ffffff;fill-opacity:1;fill-rule:nonzero;stroke:none;stroke-width:0.0517804"
       d="m 145.73128,45.614661 c -2.24365,0 -5.40692,0.85645 -7.7386,4.934163 -1.62486,2.841713 -1.63211,6.95878 -2.15354,12.586283 -0.87406,9.436476 -0.88131,15.663596 -0.88649,19.783768 -0.001,0.819686 -0.002,1.563255 -0.0109,2.206369 -0.83989,0.02901 -2.75058,0.08129 -3.54075,0.138254 -6.93341,-18.417802 -13.87355,-26.60585 -19.2085,-31.698461 -1.95574,-1.866686 -4.22218,-2.853105 -6.55488,-2.853105 -3.49053,5.06e-4 -6.71956,2.159764 -9.09266,6.080583 -2.09814,3.465668 -3.47499,8.195297 -3.98295,13.678333 -0.86059,9.293562 -1.25154,18.88227 -1.07134,26.042478 -7.38027,8.148694 -11.47818,18.200314 -13.22681,32.344674 -0.0134,0.11081 -0.0218,0.22265 -0.0254,0.3345 -0.0554,1.97802 -0.12479,3.49777 -0.18588,4.83837 -0.10512,2.30372 -0.18848,4.1238 -0.15069,6.90597 0.11392,8.39413 0.0834,14.65543 -1.35613,18.78699 -0.66227,1.90293 -1.82267,4.20302 -2.94476,6.42752 -1.11431,2.20895 -2.26643,4.49299 -3.01569,6.5523 -2.1054,5.79009 -2.43834,11.46575 -0.99004,16.86956 1.49179,5.56537 4.51525,9.44372 6.78894,11.71741 6.03449,6.03449 15.13854,9.09472 27.0584,9.09472 6.59477,0 14.08895,-0.95431 22.27442,-2.83601 20.67542,-4.75294 35.30652,-17.05857 42.18711,-23.97074 7.24409,-7.27672 12.27508,-15.34204 15.37984,-24.65684 2.91421,-8.7421 4.21493,-18.92007 3.97726,-31.11593 -0.31535,-16.17881 -3.23887,-31.215343 -8.68929,-44.692768 -4.16519,-10.299137 -9.89626,-19.638266 -16.13892,-26.297236 -5.31319,-5.667374 -10.97901,-11.201155 -16.70179,-11.201155 v 0" />
    <path
       id="path48"
       style="fill:#ef0023;fill-opacity:1;fill-rule:nonzero;stroke:none;stroke-width:0.0517804"
       d="m 156.35094,174.82302 c -1.54927,-3.09958 -6.33172,-3.7603 -10.615,-0.60428 -6.55851,4.83267 -10.44205,11.99599 -20.62572,17.34647 -12.41074,6.52072 -22.70989,7.69976 -28.99707,5.52342 -6.73147,-2.33012 -7.82456,-6.15308 -7.7241,-8.15543 0.0134,-0.26356 0.17295,-1.72636 1.51044,-2.67549 -1.57154,-0.0497 -5.7409,-0.47017 -7.29225,-0.47483 0.0259,0.0792 0.90616,1.33801 1.20804,2.37361 1.01542,3.48069 -2.83964,6.14739 -5.13507,6.25664 -5.43695,0.25891 -7.16279,-5.35048 -7.16279,-5.35048 0,0 -3.09337,5.24744 3.97001,8.54379 5.8253,2.71847 10.26962,-3.36574 10.26962,-3.36574 3.1933,5.95476 10.02056,7.87581 15.70658,8.45731 15.18928,1.55342 37.86396,-5.59229 51.86695,-17.86427 5.28161,-4.62865 3.93998,-8.17251 3.02036,-10.01072" />
    <path
       id="path50"
       style="fill:#ef0023;fill-opacity:1;fill-rule:nonzero;stroke:none;stroke-width:0.0517804"
       d="m 82.97385,159.93355 c -0.84713,-2.82153 -2.94476,-5.33858 -4.77416,-6.4472 0.013,1.14176 -0.13101,2.26333 -0.55095,3.31706 0.98849,0.42305 1.95006,0.8839 2.7511,1.36546 1.82371,1.09618 2.70139,2.46992 2.57401,1.76468" />
    <path
       id="path54"
       style="fill:#ef0023;fill-opacity:1;fill-rule:nonzero;stroke:none;stroke-width:0.0517804"
       d="m 143.88375,88.202558 c -0.46395,-0.04402 -0.77412,-0.440136 -0.78344,-0.906161 -0.12582,-6.454954 -0.38473,-14.998734 0.30447,-23.561155 0.50228,-6.23437 1.90138,-7.07891 6.14376,-2.959254 4.48574,4.355774 13.18279,16.929629 14.7885,33.307798 0.0373,0.380587 -0.38731,0.631203 -0.70473,0.416831 -2.15562,-1.457619 -8.71362,-5.259861 -19.74856,-6.298059" />
    <path
       id="path56"
       style="fill:#ef0023;fill-opacity:1;fill-rule:nonzero;stroke:none;stroke-width:0.0517804"
       d="m 101.08821,94.538416 c 3.45894,-2.43161 9.84606,-4.199396 14.98632,-4.595517 0.51832,-0.03987 0.88026,-0.525054 0.76946,-1.03302 -0.71665,-3.285989 -3.01001,-14.37012 -9.15687,-23.151055 -6.77859,-9.681915 -7.3404,2.402614 -7.69044,11.716888 -0.32984,8.774721 0.35884,14.134001 0.3837,16.695582 0.003,0.361945 0.41165,0.575279 0.70783,0.367122" />
    <path
       id="path58"
       style="fill:#ef0023;fill-opacity:1;fill-rule:nonzero;stroke:none;stroke-width:0.0517804"
       d="m 154.49565,136.24656 c 1.31367,-6.21107 0.28789,-9.32618 0.2589,-9.44994 -0.51781,-2.20067 -2.07122,1.16506 -10.615,1.29451 -8.37342,0.12687 -16.66348,2.02359 -23.11274,10.58445 -5.68032,7.54131 -5.14853,16.43409 -4.98283,18.69069 3.62929,-8.17459 4.62865,-3.17984 16.70386,-4.80886 16.31085,-2.20067 20.32384,-9.57939 21.74781,-16.31085" />
    <path
       id="path60"
       style="fill:#090909;fill-opacity:1;fill-rule:nonzero;stroke:none;stroke-width:0.0517804"
       d="m 116.04398,157.36627 c 0.5323,-6.88784 4.55512,-16.67228 13.17865,-21.42056 8.34235,-4.59396 11.96388,-3.21711 17.13209,-3.15291 1.55445,0.0197 3.03692,-0.48363 4.40652,-1.21891 0.10925,-0.0585 0.19625,-0.0658 0.23922,0.0124 0.21748,0.39405 1.03561,10.22665 -8.80268,17.21702 -5.00976,3.55939 -8.81718,4.52717 -17.95074,5.47992 -2.56676,0.26771 -5.05844,0.756 -6.7993,2.66049 -0.0688,0.0751 -0.12323,0.13721 -0.16103,0.18279 -1.27847,1.54875 -1.24273,0.23973 -1.24273,0.23973" />
    <path
       id="path62"
       style="fill:#ef0023;fill-opacity:1;fill-rule:nonzero;stroke:none;stroke-width:0.0517804"
       d="m 86.3432,137.05537 c 2.96702,7.66817 1.58397,16.10632 1.21218,18.24537 -0.18382,1.0584 -0.0974,-3.55266 -1.72688,-7.08875 -1.30383,-2.82877 -3.2689,-5.85222 -5.49028,-8.47543 -0.0171,-3.81259 0.10253,-7.27774 0.35159,-10.41305 2.19446,1.49542 4.14399,3.8302 5.65339,7.73186" />
    <path
       id="path64"
       style="fill:#090909;fill-opacity:1;fill-rule:nonzero;stroke:none;stroke-width:0.0517804"
       d="m 79.08824,132.06269 c 0.69645,0.49865 1.37995,1.05063 2.03601,1.70307 5.27539,5.25053 7.1571,16.12651 6.43113,21.53498 -0.13929,1.0382 -0.50123,0.52506 -0.9802,-0.37488 -0.36505,-0.68558 -1.19302,-1.47213 -1.76727,-1.85064 -1.96351,-1.29452 -3.7111,-0.58253 -5.91178,-4.20717 l 0.19211,-16.80536" />
    <path
       id="path66"
       style="fill:#ef0023;fill-opacity:1;fill-rule:nonzero;stroke:none;stroke-width:0.0517804"
       d="m 150.58156,151.90187 c 3.60858,-2.50669 6.59269,-5.83773 8.23775,-9.95065 1.23911,-3.09751 7.92034,-5.46854 6.55024,4.52199 -0.71095,5.18322 -5.99774,11.86601 -18.51153,13.247 -2.48236,0.27392 -11.04633,0.94913 -16.05195,2.15769 -3.40663,0.82227 -4.90568,2.08831 -4.7726,1.38409 1.23444,-2.85155 5.14956,-5.15008 8.65614,-5.91488 7.11981,-1.55341 11.78006,-2.58903 15.89195,-5.44524" />
    <path
       id="path68"
       style="fill:#090909;fill-opacity:1;fill-rule:nonzero;stroke:none;stroke-width:0.0517804"
       d="m 86.63628,187.82873 c 0.96364,-0.0347 1.8641,-0.42201 2.62372,-1.01698 1.00299,-0.78498 2.86449,-1.49127 5.81753,-3.18605 4.70737,-2.70242 7.37769,-6.41974 5.37585,-9.12424 -2.00182,-2.70397 -8.21756,-3.31757 -13.91859,-3.60909 -5.90763,-0.3024 -9.02016,0.48 -10.48658,2.11834 -1.27743,1.42654 -1.82371,3.79446 1.16506,7.63761 1.81232,2.33013 3.23628,3.36574 5.53274,5.41832 1.05892,0.94603 2.16805,1.83043 3.58684,1.77348 0.10097,-0.004 0.20194,-0.008 0.30343,-0.0114" />
    <path
       id="path70"
       style="fill:#ffffff;fill-opacity:1;fill-rule:nonzero;stroke:none;stroke-width:0.0517804"
       d="m 128.13057,195.27632 c 3.97002,-1.6399 10.87391,-7.42222 19.15878,-16.13843 3.8649,-4.06581 6.73147,-0.5178 2.76198,3.1933 -3.97001,3.71059 -11.30575,10.44205 -21.92076,12.94513" />
    <path
       id="path72"
       style="fill:#ef0023;fill-opacity:1;fill-rule:nonzero;stroke:none;stroke-width:0.0517804"
       d="m 96.63095,132.31953 c -5.09157,-5.5664 -3.68314,-14.60158 0.78551,-20.83026 3.68418,-5.13507 10.60982,-8.59659 16.8649,-6.28408 3.79966,1.40429 6.40681,4.85494 7.08409,8.80631 0.67781,3.9524 -0.46499,8.06947 -2.64702,11.38498 -2.08157,3.16275 -5.04962,5.61403 -8.53808,7.0525 -1.78435,0.7358 -5.3075,1.59691 -4.35837,0.5178 0.44377,-0.50434 2.35654,-1.88014 3.84057,-3.53816 2.93388,-3.27926 5.6596,-7.29121 5.59954,-11.90226 -0.0269,-2.02307 -0.66123,-4.30399 -2.41401,-5.5084 -0.83108,-0.57166 -1.83148,-0.8171 -2.83136,-0.83833 -0.15793,-0.003 -0.31378,0.004 -0.47171,0.01 -0.0694,0.003 -0.43962,0.0305 -0.2646,0.016 -3.80898,0.31327 -7.0872,2.90695 -9.12684,6.01275 -2.34203,3.56664 -3.35899,8.0327 -2.74591,12.25333 0.20039,1.37892 0.36919,2.01426 0.69023,2.80496 0.19988,0.49139 0.33658,0.7943 0.21593,0.92789 -0.21851,0.24078 -0.98797,-0.0787 -1.68287,-0.88492" />
    <path
       id="path74"
       style="fill:#ef0023;fill-opacity:1;fill-rule:nonzero;stroke:none;stroke-width:0.0517804"
       d="m 83.49683,167.13724 c -0.30809,0.23664 -0.12583,0.72027 0.26253,0.69645 5.31423,-0.32415 10.39338,0.69023 11.57708,1.16403 1.29451,0.5178 -1.06461,-5.10608 -0.5178,-12.12544 0.48311,-6.19916 -5.56796,5.85171 -11.32181,10.26496" />
    <path
       id="path52"
       style="fill:#394155;fill-opacity:1;fill-rule:nonzero;stroke:none;stroke-width:0.0517804"
       d="m 146.14863,43.673929 c -2.29595,0 -5.5343,0.876125 -7.92086,5.050151 -1.66267,2.90851 -2.73039,7.122924 -3.26372,12.882984 -0.89477,9.658614 -0.90254,16.032275 -0.90772,20.249795 -0.001,0.839361 -0.001,1.600018 -0.0109,2.258145 -0.86008,0.03002 -1.75588,0.08337 -2.56469,0.141882 -7.09651,-18.851723 -14.19976,-27.232913 -19.66105,-32.445654 -2.00132,-1.910182 -4.32108,-2.920419 -6.70868,-2.920419 -3.57285,5.05e-4 -6.878,2.211027 -9.30754,6.224532 -2.14682,3.546445 -3.5568,8.387921 -4.07616,13.99989 -0.88079,9.512593 -1.28105,19.327582 -1.09671,26.656592 -7.55426,8.340283 -11.74848,18.629063 -13.53853,33.106373 -0.014,0.1134 -0.0223,0.22783 -0.0259,0.34278 -0.057,2.0241 -0.12789,3.57959 -0.19055,4.95177 -0.10771,2.35809 -0.19262,4.22115 -0.15379,7.06907 0.11651,8.59194 0.0849,15.00081 -1.38823,19.22972 -0.67833,1.94747 -1.86566,4.30193 -3.01415,6.57871 -1.14072,2.26074 -2.32028,4.59863 -3.08663,6.70661 -2.15511,5.9268 -2.49634,11.73605 -1.01334,17.26672 1.52648,5.69637 4.6214,9.66638 6.94842,11.9934 6.17689,6.17741 15.49531,9.30909 27.69583,9.30909 6.75062,0 14.42138,-0.97658 22.79946,-2.9023 21.16269,-4.86529 36.13812,-17.46038 43.1813,-24.53566 7.41445,-7.4481 12.56402,-15.70398 15.7423,-25.23781 2.98256,-8.94818 4.31384,-19.3659 4.07047,-31.84914 -0.32255,-16.55991 -3.31494,-31.950625 -8.89378,-45.745464 -4.26308,-10.541989 -10.12981,-20.101185 -16.51901,-26.91705 -5.4385,-5.800967 -11.23791,-11.464717 -17.09584,-11.464717 z m 0,3.624634 c 4.46348,0 10.00865,5.579865 14.45141,10.319333 10.2629,10.94743 23.73462,34.425736 24.43366,70.253694 0.45464,23.33177 -4.56392,40.20081 -18.758,54.4596 -9.36916,9.41162 -23.6093,19.46429 -41.42438,23.56012 -8.20359,1.88585 -15.55124,2.81013 -21.98755,2.81013 -11.23637,0 -19.70041,-2.8153 -25.1327,-8.24708 -5.09727,-5.09727 -9.23401,-14.06721 -5.09157,-25.45891 1.44209,-3.9669 4.66024,-9.14806 6.11735,-13.33192 1.67095,-4.79746 1.71134,-11.45385 1.58914,-20.4709 -0.0595,-4.4003 0.19004,-6.41871 0.34382,-11.86964 1.96041,-15.85985 6.87956,-25.18033 13.61102,-32.170694 -0.2589,-6.731462 0.0264,-16.805356 1.03561,-27.702559 0.98538,-10.641926 5.27126,-16.933773 9.77408,-16.93429 1.41257,0 2.84638,0.619295 4.20665,1.917949 6.19191,5.910224 12.94512,14.757438 19.71542,33.671814 0,0 3.75875,-0.389391 6.28408,-0.389391 0.26978,0 0.52506,0.0047 0.76065,0.01449 0.0202,3.88e-4 0.0404,0.0012 0.0606,0.0012 0.72493,0 1.33904,-0.539552 1.42189,-1.265512 0.34589,-3.030196 -0.31483,-10.181598 1.01334,-24.524275 1.01179,-10.924763 3.93377,-14.64312 7.57548,-14.64312" />
  </g>
</svg>
