<?xml version="1.0" encoding="UTF-8" standalone="no"?>
<svg
   xmlns:dc="http://purl.org/dc/elements/1.1/"
   xmlns:cc="http://creativecommons.org/ns#"
   xmlns:rdf="http://www.w3.org/1999/02/22-rdf-syntax-ns#"
   xmlns:svg="http://www.w3.org/2000/svg"
   xmlns="http://www.w3.org/2000/svg"
   xmlns:sodipodi="http://sodipodi.sourceforge.net/DTD/sodipodi-0.dtd"
   xmlns:inkscape="http://www.inkscape.org/namespaces/inkscape"
   width="256"
   height="256"
   viewBox="0 0 67.733332 67.733335"
   version="1.1"
   id="svg8"
   inkscape:version="1.0 (4035a4fb49, 2020-05-01)"
   sodipodi:docname="win.svg"
   inkscape:export-filename="win_64.png"
   inkscape:export-xdpi="24.000002"
   inkscape:export-ydpi="24.000002">
  <defs
     id="defs2" />
  <sodipodi:namedview
     id="base"
     pagecolor="#ffffff"
     bordercolor="#666666"
     borderopacity="1.0"
     inkscape:pageopacity="0.0"
     inkscape:pageshadow="2"
     inkscape:zoom="1.979899"
     inkscape:cx="69.675814"
     inkscape:cy="151.84928"
     inkscape:document-units="mm"
     inkscape:current-layer="layer2"
     showgrid="true"
     units="px"
     inkscape:window-width="1920"
     inkscape:window-height="1016"
     inkscape:window-x="0"
     inkscape:window-y="27"
     inkscape:window-maximized="1"
     inkscape:document-rotation="0">
    <inkscape:grid
       type="xygrid"
       id="grid834"
       spacingx="1.0583333"
       spacingy="1.0583333"
       empspacing="4" />
  </sodipodi:namedview>
  <metadata
     id="metadata5">
    <rdf:RDF>
      <cc:Work
         rdf:about="">
        <dc:format>image/svg+xml</dc:format>
        <dc:type
           rdf:resource="http://purl.org/dc/dcmitype/StillImage" />
        <dc:title />
      </cc:Work>
    </rdf:RDF>
  </metadata>
  <g
     inkscape:groupmode="layer"
     id="layer2"
     inkscape:label="Layer 2">
    <path
       style="opacity:1;fill:#ffffff;fill-opacity:1;stroke:none;stroke-width:0.13229166;stroke-linecap:round;stroke-linejoin:miter;stroke-miterlimit:4;stroke-dasharray:none;stroke-dashoffset:0;stroke-opacity:1"
       d="m 46.566665,6.0854186 c -3.880556,0 -7.76111,0.6690375 -11.641667,2.0029783 V 32.430063 c 8.11389,-2.789148 16.227777,-2.664436 24.341667,0.378272 V 8.4666685 c -4.233333,-1.5874999 -8.466667,-2.3812499 -12.7,-2.3812499 z M 8.4666654,8.4666685 V 32.808335 c 8.1138896,3.042708 16.2277776,3.16742 24.3416666,0.378272 V 8.8449401 C 24.694443,11.634089 16.580554,11.509377 8.4666654,8.4666685 Z"
       id="path840"
       inkscape:connector-curvature="0" />
    <path
       style="opacity:1;fill:#ffffff;fill-opacity:1;stroke:none;stroke-width:0.13229166;stroke-linecap:round;stroke-linejoin:miter;stroke-miterlimit:4;stroke-dasharray:none;stroke-dashoffset:0;stroke-opacity:1"
       d="m 46.566665,32.543752 c -3.880556,0 -7.76111,0.669038 -11.641667,2.002977 v 24.341667 c 8.113887,-2.789148 16.22778,-2.664436 24.341667,0.378272 V 34.925002 c -4.233333,-1.5875 -8.466667,-2.38125 -12.7,-2.38125 z m -38.0999996,2.38125 v 24.341666 c 8.1138896,3.042708 16.2277776,3.16742 24.3416666,0.378272 V 35.303274 C 24.694443,38.092421 16.580555,37.96771 8.4666654,34.925002 Z"
       id="path846"
       inkscape:connector-curvature="0" />
  </g>
  <g
     inkscape:label="Layer 1"
     inkscape:groupmode="layer"
     id="layer1"
     transform="translate(0,-229.26664)"
     style="display:none">
    <path
       style="opacity:1;fill:#1a1a1a;fill-opacity:1;stroke:none;stroke-width:0.13229166;stroke-linecap:round;stroke-linejoin:miter;stroke-miterlimit:4;stroke-dasharray:none;stroke-dashoffset:0;stroke-opacity:1"
       d="m 8.466666,241.96664 c 8.466667,3.175 16.933333,3.175 25.4,0 8.466666,-3.175 16.933332,-3.175 25.399999,0 v 42.33333 c -8.466667,-3.175 -16.933332,-3.175 -25.399999,0 -8.466667,3.175 -16.933333,3.175 -25.3999996,0 z"
       id="rect836"
       inkscape:connector-curvature="0"
       sodipodi:nodetypes="czcczcc" />
  </g>
</svg>
