<?xml version="1.0" encoding="UTF-8" standalone="no"?>
<!-- Created with Inkscape (http://www.inkscape.org/) -->

<svg
   xmlns:dc="http://purl.org/dc/elements/1.1/"
   xmlns:cc="http://creativecommons.org/ns#"
   xmlns:rdf="http://www.w3.org/1999/02/22-rdf-syntax-ns#"
   xmlns:svg="http://www.w3.org/2000/svg"
   xmlns="http://www.w3.org/2000/svg"
   xmlns:sodipodi="http://sodipodi.sourceforge.net/DTD/sodipodi-0.dtd"
   xmlns:inkscape="http://www.inkscape.org/namespaces/inkscape"
   width="256"
   height="256"
   viewBox="0 0 256 256"
   version="1.1"
   id="svg1023"
   inkscape:version="0.92.4 (5da689c313, 2019-01-14)"
   sodipodi:docname="favicon_white.svg"
   inkscape:export-filename="favicon_white_40.png"
   inkscape:export-xdpi="15"
   inkscape:export-ydpi="15">
  <defs
     id="defs1017" />
  <sodipodi:namedview
     id="base"
     pagecolor="#ffffff"
     bordercolor="#666666"
     borderopacity="1.0"
     inkscape:pageopacity="0.0"
     inkscape:pageshadow="2"
     inkscape:zoom="0.98994949"
     inkscape:cx="34.541529"
     inkscape:cy="121.68174"
     inkscape:document-units="px"
     inkscape:current-layer="layer1"
     showgrid="false"
     units="px"
     borderlayer="true"
     inkscape:window-width="1850"
     inkscape:window-height="1016"
     inkscape:window-x="1990"
     inkscape:window-y="27"
     inkscape:window-maximized="1">
    <inkscape:grid
       type="xygrid"
       id="grid1568"
       empspacing="8" />
  </sodipodi:namedview>
  <metadata
     id="metadata1020">
    <rdf:RDF>
      <cc:Work
         rdf:about="">
        <dc:format>image/svg+xml</dc:format>
        <dc:type
           rdf:resource="http://purl.org/dc/dcmitype/StillImage" />
        <dc:title />
      </cc:Work>
    </rdf:RDF>
  </metadata>
  <g
     inkscape:groupmode="layer"
     id="layer2"
     inkscape:label="bg"
     style="display:none">
    <rect
       transform="translate(0,-229.26667)"
       style="opacity:1;fill:#000000;fill-opacity:1;stroke:none;stroke-width:6;stroke-linecap:butt;stroke-linejoin:miter;stroke-miterlimit:4;stroke-dasharray:none;stroke-dashoffset:0;stroke-opacity:1"
       id="rect828"
       width="472"
       height="408"
       x="-112"
       y="165.26666" />
  </g>
  <g
     inkscape:label="icon"
     inkscape:groupmode="layer"
     id="layer1"
     transform="translate(0,-229.26667)">
    <g
       transform="matrix(7.3333333,0,0,7.3333336,-47.999999,-1988.8887)"
       id="g850"
       style="display:inline;fill:#ffffff;fill-opacity:1;stroke:none">
      <path
         sodipodi:nodetypes="zzz"
         inkscape:connector-curvature="0"
         id="path4503"
         d="m 24,316.06664 c -8,0 -16.0000001,19 0,19 16,0 8,-19 0,-19 z"
         style="display:inline;opacity:1;fill:#ffffff;fill-opacity:1;fill-rule:nonzero;stroke:none;stroke-width:16;stroke-linecap:square;stroke-linejoin:miter;stroke-miterlimit:4;stroke-dasharray:none;stroke-dashoffset:0;stroke-opacity:1" />
      <path
         sodipodi:nodetypes="zczz"
         inkscape:connector-curvature="0"
         id="path4505"
         d="m 28,315.06664 c -4,-3 -2,-8 0,-11 2,2 4,3.21235 4,6 0,2.78765 0,8 -4,5 z"
         style="display:inline;opacity:1;fill:#ffffff;fill-opacity:1;fill-rule:nonzero;stroke:none;stroke-width:16;stroke-linecap:square;stroke-linejoin:miter;stroke-miterlimit:4;stroke-dasharray:none;stroke-dashoffset:0;stroke-opacity:1" />
      <path
         style="display:inline;opacity:1;fill:#ffffff;fill-opacity:1;fill-rule:nonzero;stroke:none;stroke-width:16;stroke-linecap:square;stroke-linejoin:miter;stroke-miterlimit:4;stroke-dasharray:none;stroke-dashoffset:0;stroke-opacity:1"
         d="m 20,315.06664 c 4,-3 2,-8 0,-11 -2,2 -4,3.21235 -4,6 0,2.78765 0,8 4,5 z"
         id="path4507"
         inkscape:connector-curvature="0"
         sodipodi:nodetypes="zczz" />
      <path
         sodipodi:nodetypes="zczz"
         inkscape:connector-curvature="0"
         id="path4509"
         d="m 34,321.06664 c -3,-3 1,-6 2,-10 3,2 3,4 3,7 0,3 -2,6 -5,3 z"
         style="display:inline;opacity:1;fill:#ffffff;fill-opacity:1;fill-rule:nonzero;stroke:none;stroke-width:16;stroke-linecap:square;stroke-linejoin:miter;stroke-miterlimit:4;stroke-dasharray:none;stroke-dashoffset:0;stroke-opacity:1" />
      <path
         style="display:inline;opacity:1;fill:#ffffff;fill-opacity:1;fill-rule:nonzero;stroke:none;stroke-width:16;stroke-linecap:square;stroke-linejoin:miter;stroke-miterlimit:4;stroke-dasharray:none;stroke-dashoffset:0;stroke-opacity:1"
         d="m 14,321.06664 c 3,-3 -1,-6 -2,-10 -3.0000001,2 -3.0000001,4 -3.0000001,7 0,3 2.0000001,6 5.0000001,3 z"
         id="path4511"
         inkscape:connector-curvature="0"
         sodipodi:nodetypes="zczz" />
    </g>
    <g
       style="display:inline;fill:#ffffff;fill-opacity:1;stroke:none;stroke-width:0.5;stroke-miterlimit:4;stroke-dasharray:none;stroke-opacity:1"
       id="g1261"
       transform="matrix(7.3333333,0,0,7.3333336,-47.999999,-1988.8887)">
      <path
         style="display:inline;opacity:1;fill:#ffffff;fill-opacity:1;fill-rule:nonzero;stroke:none;stroke-width:0.5;stroke-linecap:square;stroke-linejoin:miter;stroke-miterlimit:4;stroke-dasharray:none;stroke-dashoffset:0;stroke-opacity:1"
         d="m 24,316.06664 c -8,0 -16.0000001,19 0,19 16,0 8,-19 0,-19 z"
         id="path1251"
         inkscape:connector-curvature="0"
         sodipodi:nodetypes="zzz" />
      <path
         style="display:inline;opacity:1;fill:#ffffff;fill-opacity:1;fill-rule:nonzero;stroke:none;stroke-width:0.5;stroke-linecap:square;stroke-linejoin:miter;stroke-miterlimit:4;stroke-dasharray:none;stroke-dashoffset:0;stroke-opacity:1"
         d="m 28,315.06664 c -4,-3 -2,-8 0,-11 2,2 4,3.21235 4,6 0,2.78765 0,8 -4,5 z"
         id="path1253"
         inkscape:connector-curvature="0"
         sodipodi:nodetypes="zczz" />
      <path
         sodipodi:nodetypes="zczz"
         inkscape:connector-curvature="0"
         id="path1255"
         d="m 20,315.06664 c 4,-3 2,-8 0,-11 -2,2 -4,3.21235 -4,6 0,2.78765 0,8 4,5 z"
         style="display:inline;opacity:1;fill:#ffffff;fill-opacity:1;fill-rule:nonzero;stroke:none;stroke-width:0.5;stroke-linecap:square;stroke-linejoin:miter;stroke-miterlimit:4;stroke-dasharray:none;stroke-dashoffset:0;stroke-opacity:1" />
      <path
         style="display:inline;opacity:1;fill:#ffffff;fill-opacity:1;fill-rule:nonzero;stroke:none;stroke-width:0.5;stroke-linecap:square;stroke-linejoin:miter;stroke-miterlimit:4;stroke-dasharray:none;stroke-dashoffset:0;stroke-opacity:1"
         d="m 34,321.06664 c -3,-3 1,-6 2,-10 3,2 3,4 3,7 0,3 -2,6 -5,3 z"
         id="path1257"
         inkscape:connector-curvature="0"
         sodipodi:nodetypes="zczz" />
      <path
         sodipodi:nodetypes="zczz"
         inkscape:connector-curvature="0"
         id="path1259"
         d="m 14,321.06664 c 3,-3 -1,-6 -2,-10 -3.0000001,2 -3.0000001,4 -3.0000001,7 0,3 2.0000001,6 5.0000001,3 z"
         style="display:inline;opacity:1;fill:#ffffff;fill-opacity:1;fill-rule:nonzero;stroke:none;stroke-width:0.5;stroke-linecap:square;stroke-linejoin:miter;stroke-miterlimit:4;stroke-dasharray:none;stroke-dashoffset:0;stroke-opacity:1" />
    </g>
  </g>
</svg>
