<?xml version="1.0" encoding="UTF-8" standalone="no"?>
<!-- Created with Inkscape (http://www.inkscape.org/) -->

<svg
   width="256"
   height="256"
   viewBox="0 0 67.733332 67.733333"
   version="1.1"
   id="svg1"
   inkscape:version="1.4.3 (0d15f75042, 2025-12-25)"
   sodipodi:docname="steam.svg"
   inkscape:export-filename="steam.png"
   inkscape:export-xdpi="96"
   inkscape:export-ydpi="96"
   xmlns:inkscape="http://www.inkscape.org/namespaces/inkscape"
   xmlns:sodipodi="http://sodipodi.sourceforge.net/DTD/sodipodi-0.dtd"
   xmlns="http://www.w3.org/2000/svg"
   xmlns:svg="http://www.w3.org/2000/svg">
  <sodipodi:namedview
     id="namedview1"
     pagecolor="#ffffff"
     bordercolor="#999999"
     borderopacity="1"
     inkscape:showpageshadow="0"
     inkscape:pageopacity="0"
     inkscape:pagecheckerboard="0"
     inkscape:deskcolor="#d1d1d1"
     inkscape:document-units="px"
     inkscape:zoom="1.4142136"
     inkscape:cx="107.83378"
     inkscape:cy="124.45079"
     inkscape:window-width="1618"
     inkscape:window-height="1016"
     inkscape:window-x="0"
     inkscape:window-y="0"
     inkscape:window-maximized="1"
     inkscape:current-layer="layer1" />
  <defs
     id="defs1" />
  <g
     inkscape:groupmode="layer"
     id="layer2"
     inkscape:label="bg"
     style="display:none">
    <rect
       style="fill:#1a1a1a;stroke-width:0.264583"
       id="rect1"
       width="67.73333"
       height="67.73333"
       x="0"
       y="0" />
  </g>
  <g
     inkscape:label="logo"
     inkscape:groupmode="layer"
     id="layer1">
    <path
       id="path20"
       d="m 38.34338,24.432279 c -0.53844,0.803942 -0.826237,1.756515 -0.826237,2.722597 l -0.02905,-0.01359 c -0.0021,0.648557 0.124975,1.290361 0.372245,1.89163 0.247939,0.594513 0.611402,1.141736 1.069446,1.594376 0.458721,0.459396 1.003241,0.817454 1.601809,1.067421 0.59924,0.243209 1.241044,0.364814 1.888252,0.364814 0.969463,0 1.917305,-0.290502 2.723275,-0.824211 0.806645,-0.540465 1.434938,-1.310631 1.805833,-2.2024 0.370895,-0.898525 0.468179,-1.884876 0.279015,-2.830692 -0.189168,-0.952485 -0.655992,-1.823986 -1.341708,-2.513081 -0.685717,-0.682337 -1.559244,-1.155246 -2.510465,-1.34441 -0.950546,-0.189168 -1.936221,-0.08782 -2.832043,0.283745 -0.895822,0.371571 -1.661933,0.999862 -2.200373,1.803806 z m 9.495316,-0.905281 c 0.716792,1.074175 1.099174,2.337517 1.097822,3.627878 -0.0027,1.729492 -0.691122,3.384671 -1.913927,4.607475 -1.222805,1.222806 -2.88001,1.911899 -4.608825,1.918656 -1.291714,0 -2.555055,-0.385083 -3.62923,-1.1012 -1.074853,-0.716119 -1.912575,-1.736248 -2.407103,-2.925274 -0.495202,-1.195783 -0.624913,-2.506413 -0.372921,-3.776508 0.251316,-1.270095 0.873529,-2.432098 1.786916,-3.344134 0.913388,-0.912037 2.077417,-1.533572 3.344134,-1.790295 1.267396,-0.249966 2.580052,-0.121604 3.773806,0.378328 1.19308,0.493173 2.212535,1.330897 2.929328,2.405074 z m -23.63121,23.760245 -3.194155,-1.317387 c 0.462773,0.959327 1.197133,1.770028 2.111871,2.324004 0.914739,0.553978 1.971351,0.830968 3.040798,0.797188 1.069448,-0.03378 2.105791,-0.378325 2.982022,-0.993105 0.875555,-0.614781 1.554517,-1.472772 1.952435,-2.465877 0.397918,-0.993107 0.49858,-2.080797 0.28915,-3.127949 -0.209431,-1.05391 -0.720171,-2.019993 -1.468718,-2.783401 -0.748545,-0.763409 -1.70382,-1.290363 -2.748946,-1.520062 -1.04445,-0.236453 -2.134166,-0.155385 -3.134704,0.222944 l 3.293466,1.364677 c 0.995135,0.412104 1.78489,1.202536 2.195645,2.2024 0.410078,0.993105 0.408726,2.114573 -0.0061,3.107679 -0.414133,0.993108 -1.206591,1.783539 -2.203077,2.195644 -0.996484,0.412107 -2.115248,0.40535 -3.109706,-0.0067 z m 9.60476,-39.413498 c -6.526804,0 -12.814454,2.459121 -17.611092,6.890945 -4.796637,4.425066 -7.7509598,10.4918 -8.2745369,16.997661 l 13.9203839,5.76272 c 1.218075,-0.837721 2.661795,-1.283605 4.139294,-1.283605 h 0.410755 l 6.188339,-8.964985 v -0.135106 c 0.0067,-1.932177 0.587755,-3.823809 1.668689,-5.431695 1.080932,-1.607888 2.613153,-2.857715 4.404799,-3.594101 1.79097,-0.736384 3.760293,-0.925547 5.658681,-0.540466 1.898388,0.378327 3.641393,1.317387 5.008096,2.68882 1.366702,1.371433 2.296306,3.114436 2.671929,5.01958 0.374949,1.898386 0.179037,3.864333 -0.563434,5.654627 -0.743143,1.790295 -1.999051,3.317112 -3.609642,4.391287 -1.610588,1.074177 -3.503571,1.648423 -5.440466,1.648423 h -0.222944 l -8.806896,6.303187 v 0.344548 c 0.0048,1.824073 -0.670854,3.587344 -1.89501,4.945264 -1.224155,1.351167 -2.909735,2.202401 -4.727052,2.384808 -1.817319,0.182408 -3.637338,-0.317524 -5.104703,-1.405212 -1.467367,-1.087688 -2.477361,-2.682064 -2.833394,-4.472358 L 8.8427079,40.963788 c 1.3167111,4.64801 3.9048671,8.843379 7.4732961,12.099688 3.567752,3.256309 7.973903,5.458708 12.72325,6.350477 4.749347,0.89177 9.653402,0.43913 14.160215,-1.303874 4.507488,-1.743004 8.438704,-4.708811 11.353169,-8.559634 2.913787,-3.857577 4.694625,-8.444784 5.142535,-13.26169 0.447236,-4.810149 -0.456019,-9.654078 -2.6091,-13.977805 C 54.932991,17.98722 51.61588,14.345827 47.506985,11.798881 43.398766,9.2586888 38.662255,7.9075244 33.82981,7.9075244 l -0.01762,-0.033781"
       style="fill:#ffffff;fill-opacity:1;fill-rule:nonzero;stroke:none;stroke-width:0.0675583"
       sodipodi:nodetypes="scccccscccccsssscsccccsccsccsscscscccccsccccccscccsccsccssccccsscccscccsccc" />
  </g>
</svg>
